<svg width="22" height="13" viewBox="0 0 22 13" fill="none" xmlns="http://www.w3.org/2000/svg">
<path d="M8.19906 12.1031L6.2861 11.5906L7.06575 8.68339C5.89873 8.25361 4.81411 7.62728 3.859 6.8316L1.72612 8.96531L0.324347 7.56262L2.45822 5.43287C1.25366 3.99236 0.444303 2.26423 0.109375 0.417623L2.05898 0.0625C2.43254 2.11399 3.51537 3.96948 5.11868 5.30542C6.72198 6.64135 8.74402 7.37297 10.8322 7.37269C12.9204 7.37297 14.9425 6.64135 16.5458 5.30542C18.1491 3.96948 19.2319 2.11399 19.6054 0.0625L21.5551 0.416634C21.2206 2.26349 20.4116 3.99197 19.2072 5.43287L21.3401 7.56262L19.9383 8.96531L17.8054 6.8316C16.8503 7.62728 15.7657 8.25361 14.5987 8.68339L15.3783 11.5916L13.4654 12.1031L12.6847 9.1948C11.4587 9.40459 10.2058 9.40459 8.97969 9.1948L8.19906 12.1031Z" />
</svg>
