<svg width="22" height="25" viewBox="0 0 22 25" fill="none" xmlns="http://www.w3.org/2000/svg">
<path d="M13.4552 0.744603L15.3682 1.25701L14.5885 4.16427C15.7556 4.59405 16.8402 5.22038 17.7953 6.01605L19.9282 3.88235L21.3299 5.28504L19.1961 7.41478C20.4006 8.8553 21.21 10.5834 21.5449 12.43L19.5953 12.7852C19.2218 10.7337 18.1389 8.87817 16.5356 7.54224C14.9323 6.20631 12.9103 5.47469 10.8221 5.47496C8.73389 5.47469 6.71185 6.20631 5.10854 7.54224C3.50524 8.87817 2.4224 10.7337 2.04885 12.7852L0.0992393 12.431C0.433716 10.5842 1.24273 8.85569 2.44709 7.41478L0.314213 5.28504L1.71599 3.88235L3.84887 6.01605C4.80397 5.22038 5.88859 4.59405 7.05561 4.16427L6.27597 1.25602L8.18892 0.744603L8.96956 3.65285C10.1956 3.44306 11.4485 3.44306 12.6746 3.65285L13.4552 0.744603Z"/>
<path d="M8.18929 24.0562L6.27634 23.5438L7.05598 20.6365C5.88896 20.2067 4.80434 19.5804 3.84924 18.7847L1.71636 20.9184L0.314581 19.5157L2.44845 17.386C1.24389 15.9455 0.434537 14.2174 0.0996094 12.3707L2.04922 12.0156C2.42277 14.0671 3.50561 15.9226 5.10891 17.2585C6.71222 18.5945 8.73426 19.3261 10.8225 19.3258C12.9106 19.3261 14.9327 18.5945 16.536 17.2585C18.1393 15.9226 19.2221 14.0671 19.5957 12.0156L21.5453 12.3698C21.2108 14.2166 20.4018 15.9451 19.1974 17.386L21.3303 19.5157L19.9285 20.9184L17.7957 18.7847C16.8406 19.5804 15.7559 20.2067 14.5889 20.6365L15.3686 23.5448L13.4556 24.0562L12.675 21.1479C11.4489 21.3577 10.196 21.3577 8.96993 21.1479L8.18929 24.0562Z" />
<path d="M10.8225 15.3688C12.4639 15.3688 13.7945 14.0402 13.7945 12.4012C13.7945 10.7622 12.4639 9.43359 10.8225 9.43359C9.18118 9.43359 7.85059 10.7622 7.85059 12.4012C7.85059 14.0402 9.18118 15.3688 10.8225 15.3688Z"/>
</svg>
